#!OML:ASF I:\Actors\actors\Patient Classification 1\Patient 1\Session 1\Subject1.ASF
:FULLY-SPECIFIED
:DEGREES
1352
root 0.532769 17.4376 8.00734 39.1823 -21.0362 -4.2051
lowerback 15.4624 -0.970833 11.2689
upperback -3.02365 1.62997 6.39009
thorax -12.0819 0.220941 0.347184
lowerneck 0.173486 -10.0624 -3.3357
upperneck 10.3045 -13.3888 0.392085
head 3.58667 -6.70517 0.25278
rclavicle 3.10104e-014 1.43125e-014
rhumerus -33.7258 -3.25922 -82.9013
rradius 53.177
rwrist 9.05845
rhand 6.58173 -23.8693
rfingers 7.12502
rthumb 31.8775 -51.0997
lclavicle 3.10104e-014 1.43125e-014
lhumerus -33.1357 -4.54596 95.4261
lradius 43.7584
lwrist 4.10641
lhand -26.1102 -19.7098
lfingers 7.12502
lthumb 0.439268 10.2695
rfemur -56.1756 36.0776 -24.0418
rtibia 4.00923
rfoot -10.3208 -35.7086
rtoes 2.87495
lfemur -37.6056 -1.78045 -5.77598
ltibia 2.87558
lfoot -22.2505 36.0391
ltoes 36.7695
1353
root 0.522052 17.4398 8.01142 38.9469 -21.5883 -4.1428
lowerback 15.3981 -1.00249 11.3414
upperback -2.93199 1.58008 6.41593
thorax -11.941 0.200012 0.343821
lowerneck 0.350018 -10.108 -3.35336
upperneck 10.0515 -13.4617 0.502293
head 3.47734 -6.73947 0.30624
rclavicle -2.94201e-014 -5.08889e-014
rhumerus -33.5665 -3.41305 -82.8291
rradius 53.1564
rwrist 9.10778
rhand 6.60678 -23.8639
rfingers 7.12502
rthumb 31.9013 -51.0895
lclavicle -2.94201e-014 -5.08889e-014
lhumerus -33.0728 -4.7416 95.4824
lradius 43.7194
lwrist 4.21308
lhand -26.352 -19.8822
lfingers 7.12502
lthumb 0.205786 10.0975
rfemur -55.9867 36.0803 -23.7994
rtibia 4.08001
rfoot -9.90939 -35.0665
rtoes 2.23639
lfemur -37.1233 -1.25439 -6.22802
ltibia 2.79346
lfoot -22.6299 35.5685
ltoes 37.5817
1354
root 0.50819 17.4432 8.0138 38.7415 -22.1333 -4.07727
lowerback 15.5447 -1.06652 11.3013
upperback -3.00762 1.53238 6.52805
thorax -12.1255 0.176348 0.510772
lowerneck 0.536189 -10.107 -3.37878
upperneck 10.0078 -13.4537 0.335925
head 3.41535 -6.74395 0.271242
rclavicle -1.27222e-014 -1.59028e-014
rhumerus -33.6569 -3.33816 -82.6854
rradius 53.1331
rwrist 9.14307
rhand 6.67511 -23.7727
rfingers 7.12502
rthumb 31.9664 -50.9853
lclavicle -1.27222e-014 -1.59028e-014
lhumerus -33.2787 -4.67213 95.6069
lradius 43.7141
lwrist 4.22706
lhand -26.4292 -19.8439
lfingers 7.12502
lthumb 0.131233 10.1358
rfemur -55.8125 35.9987 -23.4707
rtibia 4.21563
rfoot -9.45395 -34.3404
rtoes 1.44177
lfemur -36.7091 -0.607407 -6.71661
ltibia 2.7868
lfoot -22.9562 35.0091
ltoes 38.3264
1355
root 0.494903 17.4451 8.0153 38.623 -22.6846 -4.03067
lowerback 15.4649 -1.06809 11.3674
upperback -2.986 1.53 6.57813
thorax -12.0542 0.17475 0.529056
lowerneck 0.496826 -10.1253 -3.45166
upperneck 10.1131 -13.4794 0.345626
head 3.46694 -6.75899 0.278243
rclavicle -3.33958e-014 2.22639e-014
rhumerus -33.5844 -3.46573 -82.5764
rradius 53.1311
rwrist 9.10406
rhand 6.69261 -23.7366
rfingers 7.12502
rthumb 31.983 -50.9459
lclavicle -3.33958e-014 2.22639e-014
lhumerus -33.2698 -4.77114 95.684
lradius 43.6697
lwrist 4.0904
lhand -26.5744 -19.8193
lfingers 7.12502
lthumb -0.00905627 10.1604
rfemur -55.7428 35.847 -23.1916
rtibia 4.34803
rfoot -9.04871 -33.6192
rtoes 0.767463
lfemur -36.4135 0.160787 -7.22828
ltibia 2.84798
lfoot -23.2783 34.3329
ltoes 39.0438
1356
root 0.483094 17.4468 8.01818 38.4954 -23.2316 -4.02372
lowerback 15.5335 -1.12107 11.3983
upperback -3.0113 1.49305 6.71402
thorax -12.1329 0.156726 0.677694
lowerneck 0.432939 -10.1007 -3.39047
upperneck 10.2453 -13.4222 0.00261591
head 3.48995 -6.74126 0.156061
rclavicle -2.38542e-014 -2.54444e-014
rhumerus -33.5786 -3.36456 -82.4402
rradius 53.1445
rwrist 9.0705
rhand 6.74168 -23.7806
rfingers 7.12502
rthumb 32.0298 -50.9806
lclavicle -2.38542e-014 -2.54444e-014
lhumerus -33.3839 -4.62771 95.795
lradius 43.6537
lwrist 3.96434
lhand -26.7593 -19.8437
lfingers 7.12502
lthumb -0.187637 10.136
rfemur -55.594 35.6923 -22.8173
rtibia 4.41066
rfoot -8.6543 -32.8409
rtoes 0.15823
lfemur -36.0804 0.813076 -7.63073
ltibia 2.87519
lfoot -23.6354 33.76
ltoes 39.7738
1357
root 0.471564 17.4447 8.0179 38.327 -23.3051 -4.48356
lowerback 15.6445 -1.27963 12.1728
upperback -2.88138 1.45665 6.9271
thorax -12.0544 0.0974332 0.500727
lowerneck 0.449612 -10.0849 -3.43297
upperneck 10.1846 -13.4046 0.0344349
head 3.47127 -6.73357 0.176233
rclavicle 3.81667e-014 3.81667e-014
rhumerus -33.4061 -3.3913 -82.4074
rradius 53.1381
rwrist 9.0475
rhand 6.80223 -23.8805
rfingers 7.12502
rthumb 32.0874 -51.0688
lclavicle 3.81667e-014 3.81667e-014
lhumerus -33.3095 -4.78119 95.8195
lradius 43.6122
lwrist 4.05538
lhand -26.8937 -19.8759
lfingers 7.12502
lthumb -0.317415 10.1036
rfemur -55.2795 36.0499 -21.9297
rtibia 4.43157
rfoot -8.44416 -32.4519
rtoes -0.123713
lfemur -35.5986 1.63805 -7.39719
ltibia 2.96243
lfoot -23.76 32.9651
ltoes 40.4803
1358
root 0.503239 17.407 7.96907 40.4597 -23.2606 -6.70929
lowerback 14.771 -1.04513 14.2241
upperback -3.21696 2.08473 7.48378
thorax -11.8725 0.258788 -0.134233
lowerneck 0.439009 -10.0798 -3.4136
upperneck 10.2363 -13.3908 -0.0913589
head 3.47897 -6.73124 0.132238
rclavicle -7.95139e-016 -1.30403e-013
rhumerus -33.4123 -3.30268 -82.3793
rradius 53.1762
rwrist 8.96388
rhand 6.74524 -23.9373
rfingers 7.12502
rthumb 32.0332 -51.1365
lclavicle -7.95139e-016 -1.30403e-013
lhumerus -33.3874 -4.91639 95.8527
lradius 43.5768
lwrist 4.21092
lhand -27.0968 -19.9234
lfingers 7.12502
lthumb -0.513625 10.0558
rfemur -56.9195 34.0831 -18.9181
rtibia 5.37972
rfoot -7.39127 -29.6296
rtoes -2.13841
lfemur -37.4781 3.21099 -5.01873
ltibia 3.99592
lfoot -24.4722 33.1505
ltoes 41.0163
1359
root 0.44513 17.4413 8.01297 38.6492 -24.3722 -4.53334
lowerback 15.2311 -1.27915 12.3914
upperback -3.04485 1.45738 7.09033
thorax -12.0039 0.08461 0.566381
lowerneck 0.373222 -10.1315 -3.38073
upperneck 10.3208 -13.4457 -0.284521
head 3.50322 -6.76438 0.0581872
rclavicle -3.49861e-014 -1.59028e-015
rhumerus -33.4244 -3.37804 -82.2923
rradius 53.2414
rwrist 8.94427
rhand 6.70803 -23.945
rfingers 7.12502
rthumb 31.9977 -51.1514
lclavicle -3.49861e-014 -1.59028e-015
lhumerus -33.4232 -5.05361 95.9278
lradius 43.4867
lwrist 4.23048
lhand -27.3608 -20.0567
lfingers 7.12502
lthumb -0.768551 9.92171
rfemur -56.016 35.7305 -22.1596
rtibia 4.66457
rfoot -8.09087 -31.4894
rtoes -1.32388
lfemur -35.7235 3.39268 -8.21447
ltibia 3.28657
lfoot -23.9939 31.7129
ltoes 41.5103
1360
root 0.425473 17.4424 8.01853 38.5486 -24.838 -4.48326
lowerback 15.2341 -1.29698 12.5412
upperback -3.10555 1.47706 7.16196
thorax -12.0774 0.0807586 0.564822
lowerneck 0.30165 -10.2545 -3.38789
upperneck 10.5161 -13.5968 -0.463788
head 3.57379 -6.84592 -0.0139033
rclavicle -1.66979e-014 6.36111e-014
rhumerus -33.5695 -3.54442 -82.1189
rradius 53.3802
rwrist 8.9127
rhand 6.81854 -23.9824
rfingers 7.12502
rthumb 32.103 -51.1676
lclavicle -1.66979e-014 6.36111e-014
lhumerus -33.5666 -5.13958 96.0595
lradius 43.4463
lwrist 4.11481
lhand -27.7075 -20.0941
lfingers 7.12502
lthumb -1.10338 9.88281
rfemur -56.093 35.9282 -22.3264
rtibia 4.66279
rfoot -8.08887 -31.2746
rtoes -1.44926
lfemur -35.4651 4.11993 -8.63423
ltibia 3.34704
lfoot -24.1804 30.9913
ltoes 42.2115
